<svg width="32" height="32" viewBox="0 0 32 32" preserveAspectRatio="xMinYMin meet" fill="none" xmlns="http://www.w3.org/2000/svg">
<g clip-path="url(#clip0_11748_2771)">
<path fill-rule="evenodd" clip-rule="evenodd" d="M16 2.46543C8.52507 2.46543 2.46543 8.52507 2.46543 16C2.46543 23.475 8.52507 29.5346 16 29.5346C23.475 29.5346 29.5346 23.475 29.5346 16C29.5346 8.52507 23.475 2.46543 16 2.46543ZM-0.050293 16C-0.050293 7.13568 7.13568 -0.050293 16 -0.050293C24.8644 -0.050293 32.0503 7.13568 32.0503 16C32.0503 24.8644 24.8644 32.0503 16 32.0503C7.13568 32.0503 -0.050293 24.8644 -0.050293 16Z" fill="#333333"/>
<path d="M18.8177 21.3334C18.717 21.2327 18.717 21.0315 18.6164 20.8302C18.6164 20.629 18.5158 20.4277 18.5158 20.2264C18.3145 20.4277 18.1133 20.5283 17.912 20.7296C17.7108 20.9308 17.4089 21.0315 17.2076 21.1321C16.9057 21.2327 16.7045 21.3334 16.302 21.434C16.0001 21.5346 15.5976 21.5346 15.2957 21.5346C14.6919 21.5346 14.1887 21.434 13.6856 21.2327C13.1825 21.0315 12.7799 20.8302 12.3774 20.5283C11.9749 20.2264 11.7737 19.8239 11.5724 19.4214C11.3711 19.0189 11.2705 18.5158 11.2705 18.0126C11.2705 16.8051 11.7737 15.7988 12.6793 15.195C13.585 14.4906 14.9938 14.1887 16.8051 14.1887H18.5158V13.4843C18.5158 12.8805 18.3145 12.478 18.0126 12.1761C17.6101 11.8742 17.107 11.673 16.4026 11.673C15.7988 11.673 15.3963 11.7736 15.0944 12.0755C14.7925 12.3774 14.6919 12.6793 14.6919 13.0818H11.673C11.673 12.5786 11.7737 12.0755 11.9749 11.673C12.1762 11.2705 12.4781 10.868 12.9812 10.4654C13.3837 10.1636 13.8869 9.86167 14.4906 9.66041C15.0944 9.45915 15.7988 9.35852 16.6038 9.35852C17.3082 9.35852 17.912 9.45915 18.5158 9.66041C19.1196 9.86167 19.6227 10.0629 20.1259 10.4654C20.5284 10.7673 20.9309 11.2705 21.1321 11.7736C21.3334 12.2768 21.5347 12.8805 21.5347 13.5849V18.6164C21.5347 19.2202 21.5347 19.7233 21.6353 20.1258C21.7359 20.5283 21.8365 20.9308 21.9372 21.1321V21.3334H18.8177ZM15.8994 19.2202C16.2013 19.2202 16.5032 19.2202 16.7045 19.1195C17.0064 19.0189 17.2076 18.9183 17.4089 18.8176C17.6101 18.717 17.8114 18.6164 17.912 18.4151C18.0126 18.3145 18.2139 18.1132 18.3145 18.0126V16H16.8051C16.302 16 15.8994 16 15.5976 16.1007C15.2957 16.2013 14.9938 16.3019 14.7925 16.5032C14.5913 16.7044 14.39 16.8051 14.2894 17.1069C14.1887 17.3082 14.1887 17.6101 14.1887 17.8114C14.1887 18.2139 14.2894 18.5158 14.5913 18.8176C14.8931 19.1195 15.3963 19.2202 15.8994 19.2202Z" fill="#333333"/>
</g>
<defs>
<clipPath id="clip0_11748_2771">
<rect width="32" height="32" fill="white"/>
</clipPath>
</defs>
</svg>
